<?xml version="1.0" encoding="UTF-8" standalone="no"?>
<svg
   xmlns:dc="http://purl.org/dc/elements/1.1/"
   xmlns:cc="http://creativecommons.org/ns#"
   xmlns:rdf="http://www.w3.org/1999/02/22-rdf-syntax-ns#"
   xmlns:svg="http://www.w3.org/2000/svg"
   xmlns="http://www.w3.org/2000/svg"
   viewBox="0 0 305.33334 293.33334"
   height="293.33334"
   width="305.33334"
   xml:space="preserve"
   id="svg2"
   version="1.1"><metadata
     id="metadata8"><rdf:RDF><cc:Work
         rdf:about=""><dc:format>image/svg+xml</dc:format><dc:type
           rdf:resource="http://purl.org/dc/dcmitype/StillImage" /></cc:Work></rdf:RDF></metadata><defs
     id="defs6" /><g
     transform="matrix(1.3333333,0,0,-1.3333333,0,293.33333)"
     id="g10"><g
       transform="scale(0.1)"
       id="g12"><path
         id="path14"
         style="fill:#004863;fill-opacity:1;fill-rule:evenodd;stroke:none"
         d="M 1126.21,2200 457.031,1813.71 v -772.54 l 669.179,-387.342 669.14,387.342 v 772.54 L 1126.21,2200" /><path
         id="path16"
         style="fill:#abe1fa;fill-opacity:1;fill-rule:evenodd;stroke:none"
         d="m 758.121,1090.08 c 15.859,16.68 26.879,36.29 32.93,59.02 7.621,31.84 5.668,62.11 -5.699,90.86 l 269.298,158.01 c 20.43,-26.52 48.12,-44.73 82.89,-54.57 28.05,-6.84 54.96,-6.84 80.7,0 25.74,6.83 48.44,19.33 68.17,37.54 l 160.19,-129.61 c -5.31,-8.24 -9.14,-17.03 -11.37,-26.1 -6.83,-28.04 -4.49,-54.14 6.84,-78.35 10.59,-25.04 27.97,-43.95 52.19,-56.8 L 1126.21,876.41 758.121,1090.08 m 238.559,888.36 c -3.008,-28.75 3.05,-54.49 18.2,-77.19 15.9,-22.73 37.82,-38.28 65.86,-46.6 8.36,-2.23 16.68,-3.4 25.04,-3.4 l 29.57,-205.63 c -26.56,-7.57 -49.65,-20.85 -69.33,-39.76 -18.99,-18.91 -32.58,-42.42 -40.94,-70.51 -8.32,-35.58 -5.67,-69.22 8.01,-101.09 L 763.789,1275.23 c -18.91,23.52 -43.59,39.38 -73.867,47.74 -25,6.83 -49.262,6.83 -72.652,0 v 436.25 l 379.41,219.22 m 638.55,-702.07 c -14.49,15.19 -32.57,25.74 -54.61,31.79 -19.68,5.32 -38.94,5.67 -57.92,1.14 -18.91,-4.53 -35.63,-12.85 -50,-24.92 l -160.2,128.32 c 7.62,12.89 13.67,26.91 18.2,42.07 8.32,34.1 5.67,67.03 -7.89,98.78 l 38.6,21.57 c 17.38,-21.21 40.47,-35.94 69.33,-44.26 35.59,-8.36 68.17,-3.75 97.62,13.67 29.57,17.38 49.61,43.91 60.27,79.49 8.32,34.81 3.71,67.03 -13.67,96.6 -17.38,30.24 -43.48,50.32 -78.36,60.16 -35.62,8.36 -68.2,4.18 -97.73,-12.5 -30.28,-17.42 -50.35,-43.51 -60.2,-78.4 -6.83,-28.04 -5.66,-54.14 3.4,-78.36 l -39.77,-22.73 c -21.21,28.05 -49.18,47.3 -84.06,57.97 -14.37,3.01 -28.4,4.53 -42.07,4.53 l -29.49,205.66 c 17.42,6.02 32.58,15.9 45.47,29.53 12.07,13.6 20.74,29.93 26.09,48.83 6.02,23.52 5.31,45.47 -2.3,65.86 l 419.29,-241.95 v -482.85" /><path
         id="path18"
         style="fill:#6dcff6;fill-opacity:1;fill-rule:nonzero;stroke:none"
         d="m 58.0508,167.07 h 48.8982 c 26.879,0 47.031,1.758 60.473,5.309 13.437,3.641 25.078,9.691 35,18.133 13.519,11.558 23.629,25.937 30.308,43.117 6.758,17.191 10.161,37.109 10.161,59.851 0,22.809 -3.403,42.809 -10.161,60 -6.679,17.18 -16.789,31.559 -30.308,43.122 -10.121,8.437 -22.192,14.418 -36.25,17.968 -14.063,3.629 -36.094,5.469 -66.094,5.469 H 58.0508 Z M 0.078125,114.57 v 357.5 H 78.3594 c 50.9416,0 86.7616,-2.621 107.4996,-7.808 20.821,-5.121 39.063,-13.711 54.692,-25.782 20.621,-15.75 36.25,-36.019 46.871,-60.781 10.699,-24.687 16.098,-52.929 16.098,-84.687 0,-31.684 -5.399,-59.813 -16.098,-84.383 -10.621,-24.488 -26.25,-44.68 -46.871,-60.617 -15.629,-12.114 -33.442,-20.711 -53.442,-25.782 -19.918,-5.121 -50.937,-7.66 -93.1285,-7.66 z m 583.401875,0 h -52.968 v 30 c -9.492,-13.359 -20.551,-23.281 -33.133,-29.84 -12.609,-6.449 -27.027,-9.691 -43.277,-9.691 -32.731,0 -58.512,11.172 -77.34,33.59 -18.75,22.391 -28.133,53.012 -28.133,91.883 0,36.949 9.57,66.789 28.75,89.527 19.262,22.691 44.383,34.063 75.32,34.063 18.821,0 35,-3.981 48.43,-11.872 13.441,-7.929 23.211,-19.3 29.383,-34.07 v 37.82 h 52.968 z m -51.57,116.41 c 0,23.942 -5.582,42.571 -16.711,55.93 -11.179,13.32 -26.719,20 -46.719,20 -20,0 -35.75,-6.871 -47.191,-20.621 -11.488,-13.75 -17.187,-32.809 -17.187,-57.187 0,-24.614 5.507,-43.551 16.558,-56.872 11.02,-13.359 26.641,-20 46.879,-20 19.063,0 34.531,7.219 46.41,21.719 11.949,14.449 17.961,33.473 17.961,57.031 z" /><path
         id="path20"
         style="fill:#6dcff6;fill-opacity:1;fill-rule:nonzero;stroke:none"
         d="m 669.18,114.57 v 185 h -40.469 v 46.41 h 40.469 v 87.649 h 52.968 V 345.98 h 40.622 v -46.41 h -40.622 v -185 z" /><path
         id="path22"
         style="fill:#6dcff6;fill-opacity:1;fill-rule:nonzero;stroke:none"
         d="m 1025.86,114.57 h -52.969 v 30 c -9.493,-13.359 -20.551,-23.281 -33.121,-29.84 -12.622,-6.449 -27.04,-9.691 -43.29,-9.691 -32.73,0 -58.511,11.172 -77.339,33.59 -18.75,22.391 -28.121,53.012 -28.121,91.883 0,36.949 9.57,66.789 28.75,89.527 19.25,22.691 44.371,34.063 75.308,34.063 18.832,0 35,-3.981 48.442,-11.872 13.429,-7.929 23.199,-19.3 29.371,-34.07 v 37.82 h 52.969 z m -51.559,116.41 c 0,23.942 -5.59,42.571 -16.723,55.93 -11.168,13.32 -26.719,20 -46.719,20 -20,0 -35.738,-6.871 -47.187,-20.621 -11.481,-13.75 -17.192,-32.809 -17.192,-57.187 0,-24.614 5.508,-43.551 16.571,-56.872 11.008,-13.359 26.64,-20 46.871,-20 19.058,0 34.527,7.219 46.406,21.719 11.953,14.449 17.973,33.473 17.973,57.031 z" /><path
         id="path24"
         style="fill:#6dcff6;fill-opacity:1;fill-rule:nonzero;stroke:none"
         d="m 1265.31,230.98 c 0,23.942 -5.58,42.571 -16.72,55.93 -11.17,13.32 -26.71,20 -46.71,20 -20,0 -35.75,-6.871 -47.19,-20.621 -11.49,-13.75 -17.19,-32.809 -17.19,-57.187 0,-24.614 5.51,-43.551 16.56,-56.872 11.02,-13.359 26.64,-20 46.88,-20 19.37,0 34.92,7.11 46.72,21.399 11.75,14.383 17.65,33.48 17.65,57.351 z M 1316.88,5.66016 h -52.97 V 144.57 c -9.5,-13.359 -20.55,-23.281 -33.13,-29.84 -12.62,-6.449 -27.03,-9.691 -43.28,-9.691 -32.73,0 -58.52,11.172 -77.34,33.59 -18.75,22.391 -28.13,53.012 -28.13,91.883 0,36.949 9.57,66.789 28.75,89.527 19.26,22.691 44.38,34.063 75.31,34.063 18.83,0 35,-3.981 48.44,-11.872 13.44,-7.929 23.2,-19.3 29.38,-34.07 v 37.82 h 52.97 z" /><path
         id="path26"
         style="fill:#6dcff6;fill-opacity:1;fill-rule:nonzero;stroke:none"
         d="M 1441.48,345.98 V 215.66 c 0,-22.5 4.61,-38.672 13.91,-48.43 9.26,-9.691 24.3,-14.531 45.16,-14.531 20.82,0 35.86,4.84 45.15,14.531 9.26,9.758 13.91,25.93 13.91,48.43 v 130.32 h 52.97 V 231.449 c 0,-44.301 -8.91,-76.41 -26.72,-96.41 -17.74,-20 -46.02,-30 -84.84,-30 -39.61,0 -68.29,9.883 -86.1,29.691 -17.73,19.879 -26.56,52.11 -26.56,96.719 V 345.98 Z" /><path
         id="path28"
         style="fill:#6dcff6;fill-opacity:1;fill-rule:nonzero;stroke:none"
         d="m 1906.99,222.539 h -185 c 1.25,-21.68 7.66,-38.59 19.22,-50.777 11.56,-12.114 26.91,-18.133 46.09,-18.133 17.08,0 31.29,3.601 42.66,10.781 11.45,7.192 21.41,18.75 29.84,34.692 l 44.69,-25 c -13.04,-23.243 -29.14,-40.582 -48.28,-52.032 -19.18,-11.332 -41.72,-17.031 -67.66,-17.031 -37.1,0 -66.64,11.293 -88.59,33.91 -21.99,22.571 -32.97,52.813 -32.97,90.621 0,36.25 11.33,66.02 34.06,89.379 22.7,23.43 51.88,35.153 87.5,35.153 37.27,0 66.33,-10.704 87.19,-32.032 20.82,-21.371 31.25,-51.211 31.25,-89.531 z m -55,35.621 c -2.11,16.57 -8.44,29.141 -19.06,37.82 -10.55,8.75 -25,13.122 -43.44,13.122 -17.42,0 -31.4,-4.223 -42.03,-12.653 -10.55,-8.437 -17.93,-21.219 -22.19,-38.289 z" /><path
         id="path30"
         style="fill:#6dcff6;fill-opacity:1;fill-rule:nonzero;stroke:none"
         d="m 1935.78,156.602 43.91,23.91 c 3.32,-11.563 9.37,-20.391 18.12,-26.41 8.75,-6.051 20.04,-9.063 33.91,-9.063 11.87,0 21.17,2.691 27.97,8.121 6.76,5.512 10.15,13.012 10.15,22.5 0,12.5 -12.03,23.211 -36.09,32.192 -8.13,2.886 -14.45,5.347 -18.91,7.347 -24.68,10.192 -41.99,20.539 -51.87,31.09 -9.81,10.621 -14.69,23.512 -14.69,38.75 0,20.621 8.05,37.34 24.22,50.16 16.25,12.891 37.7,19.371 64.38,19.371 17.89,0 33.2,-3.359 45.93,-10 12.81,-6.558 22.11,-15.941 27.97,-28.121 l -37.5,-25.789 c -2.81,7.27 -7.73,13.051 -14.69,17.352 -6.87,4.367 -14.84,6.558 -23.9,6.558 -10.12,0 -18.24,-2.422 -24.38,-7.191 -6.05,-4.801 -9.06,-11.207 -9.06,-19.219 0,-12.109 13.63,-23.082 40.94,-32.961 8.63,-3.129 15.31,-5.629 20,-7.5 21.33,-8.558 36.6,-18.129 45.78,-28.75 9.26,-10.629 13.91,-23.91 13.91,-39.847 0,-23.122 -8.4,-41.25 -25.16,-54.372 -16.8,-13.128 -39.92,-19.691 -69.38,-19.691 -22.61,0 -41.4,4.223 -56.4,12.66 -15,8.512 -26.72,21.481 -35.16,38.903 z" /><path
         id="path32"
         style="fill:#6dcff6;fill-opacity:1;fill-rule:nonzero;stroke:none"
         d="m 2187.73,114.57 v 185 h -40.46 v 46.41 h 40.46 v 87.649 h 52.97 V 345.98 h 40.63 v -46.41 h -40.63 v -185 z" /></g></g></svg>